<svg aria-hidden="true" style="position: absolute; width: 0; height: 0; overflow: hidden;" version="1.1" xmlns="http://www.w3.org/2000/svg" xmlns:xlink="http://www.w3.org/1999/xlink">
<defs>
<symbol id="icon-arrow-left" viewBox="0 0 64 32">
<path d="M64 16c0-0.982-0.796-1.778-1.778-1.778h-56.889c-0.982 0-1.778 0.796-1.778 1.778s0.796 1.778 1.778 1.778h56.889c0.982 0 1.778-0.796 1.778-1.778z"></path>
<path d="M19.035 2.298c-0.694-0.694-1.82-0.694-2.514 0l-13.702 13.702 13.702 13.701c0.694 0.694 1.82 0.694 2.514 0s0.694-1.82 0-2.514l-11.187-11.187 11.187-11.187c0.694-0.694 0.694-1.82 0-2.514z"></path>
</symbol>
<symbol id="icon-arrow-right" viewBox="0 0 68 32">
<path d="M3.325 16c0-0.982 0.796-1.778 1.778-1.778h56.889c0.982 0 1.778 0.796 1.778 1.778s-0.796 1.778-1.778 1.778h-56.889c-0.982 0-1.778-0.796-1.778-1.778z"></path>
<path d="M48.291 2.298c0.694-0.694 1.82-0.694 2.514 0l13.701 13.702-13.701 13.701c-0.694 0.694-1.82 0.694-2.514 0s-0.694-1.82 0-2.514l11.187-11.187-11.187-11.187c-0.694-0.694-0.694-1.82 0-2.514z"></path>
</symbol>
<symbol id="icon-facebook" viewBox="0 0 17 32">
<path d="M10.336 31.988h-6.89v-15.99h-3.444v-5.512h3.444v-3.308c0-4.495 1.945-7.171 7.466-7.171h4.598v5.512h-2.872c-2.152 0-2.294 0.771-2.294 2.21l-0.008 2.757h5.208l-0.61 5.512h-4.598v15.99z"></path>
</symbol>
<symbol id="icon-linkedin" viewBox="0 0 32 32">
<path  d="M29.619 30.421h-27.238c-1.306 0-2.363-0.926-2.363-2.069v-24.701c0-1.141 1.058-2.067 2.363-2.067h27.238c1.304 0 2.362 0.926 2.362 2.067v24.701c0 1.142-1.058 2.069-2.362 2.069zM5.557 25.67h4.707v-13.019h-4.707v13.019zM7.942 6.376c-1.611 0-2.662 0.971-2.662 2.25 0 1.248 1.021 2.25 2.6 2.25h0.030c1.642 0 2.662-1.002 2.662-2.25-0.029-1.278-1.021-2.25-2.63-2.25zM27.237 18.206c0-4-2.323-5.861-5.419-5.861-2.499 0-3.616 1.262-4.242 2.15v-1.845h-4.707c0.062 1.222 0 13.019 0 13.019h4.707v-7.27c0-0.387 0.030-0.778 0.155-1.054 0.339-0.778 1.115-1.582 2.414-1.582 1.704 0 2.384 1.194 2.384 2.944v6.963h4.707v-7.464zM17.544 14.539c0.010-0.014 0.022-0.029 0.032-0.043v0.043h-0.032z"></path>
</symbol>
<symbol id="icon-pinterest" viewBox="0 0 24 32">
<path  d="M12.504 0c-8.312 0-12.502 5.932-12.502 10.88 0 2.995 1.139 5.659 3.582 6.653 0.401 0.163 0.76 0.005 0.876-0.436 0.081-0.305 0.273-1.076 0.357-1.398 0.118-0.436 0.072-0.589-0.251-0.97-0.706-0.827-1.155-1.898-1.155-3.416 0-4.401 3.308-8.34 8.613-8.34 4.697 0 7.277 2.858 7.277 6.673 0 5.022-2.232 9.26-5.546 9.26-1.829 0-3.198-1.507-2.76-3.355 0.527-2.205 1.544-4.586 1.544-6.179 0-1.425-0.768-2.614-2.36-2.614-1.869 0-3.372 1.927-3.372 4.507 0 1.645 0.557 2.757 0.557 2.757s-1.915 8.074-2.25 9.489c-0.669 2.816-0.099 6.269-0.052 6.619 0.029 0.205 0.295 0.254 0.416 0.099 0.172-0.226 2.4-2.963 3.158-5.699 0.214-0.775 1.229-4.787 1.229-4.787 0.608 1.154 2.385 2.171 4.273 2.171 5.624 0 9.438-5.105 9.438-11.936 0-5.165-4.394-9.977-11.074-9.977z"></path>
</symbol>
<symbol id="icon-twitter" viewBox="0 0 41 32">
<path  d="M39.544 3.569c-1.455 0.606-3.019 1.011-4.659 1.195 1.675-0.941 2.961-2.432 3.567-4.205-1.57 0.87-3.305 1.502-5.154 1.845-1.478-1.48-3.588-2.402-5.92-2.402-4.48 0-8.115 3.405-8.115 7.603 0 0.597 0.072 1.178 0.211 1.734-6.743-0.318-12.721-3.345-16.723-7.944-0.698 1.124-1.097 2.428-1.097 3.823 0 2.635 1.432 4.966 3.608 6.328-1.329-0.041-2.579-0.382-3.674-0.952 0 0.034 0 0.062 0 0.098 0 3.684 2.795 6.756 6.507 7.454-0.68 0.173-1.399 0.264-2.136 0.264-0.523 0-1.032-0.045-1.527-0.132 1.032 3.017 4.028 5.218 7.578 5.28-2.776 2.039-6.274 3.253-10.076 3.253-0.655 0-1.301-0.036-1.935-0.105 3.59 2.155 7.855 3.416 12.437 3.416 14.923 0 23.083-11.588 23.083-21.634 0-0.331-0.009-0.657-0.024-0.984 1.585-1.073 2.961-2.411 4.049-3.934z"></path>
</symbol>
<symbol id="icon-map" fill="none" viewBox="0 0 24 24" stroke-width="1.5" stroke="currentColor">
<path stroke-linecap="round" stroke-linejoin="round" d="M15 10.5a3 3 0 11-6 0 3 3 0 016 0z" />
  <path stroke-linecap="round" stroke-linejoin="round" d="M19.5 10.5c0 7.142-7.5 11.25-7.5 11.25S4.5 17.642 4.5 10.5a7.5 7.5 0 1115 0z" />
</symbol>
<symbol id="icon-phone" fill="none" viewBox="0 0 24 24" stroke-width="1.5" stroke="currentColor">
  <path stroke-linecap="round" stroke-linejoin="round" d="M2.25 6.75c0 8.284 6.716 15 15 15h2.25a2.25 2.25 0 002.25-2.25v-1.372c0-.516-.351-.966-.852-1.091l-4.423-1.106c-.44-.11-.902.055-1.173.417l-.97 1.293c-.282.376-.769.542-1.21.38a12.035 12.035 0 01-7.143-7.143c-.162-.441.004-.928.38-1.21l1.293-.97c.363-.271.527-.734.417-1.173L6.963 3.102a1.125 1.125 0 00-1.091-.852H4.5A2.25 2.25 0 002.25 4.5v2.25z" />
</symbol>
<symbol  id="icon-email" fill="none" viewBox="0 0 24 24" stroke-width="1.5" stroke="currentColor">
  <path stroke-linecap="round" stroke-linejoin="round" d="M21.75 6.75v10.5a2.25 2.25 0 01-2.25 2.25h-15a2.25 2.25 0 01-2.25-2.25V6.75m19.5 0A2.25 2.25 0 0019.5 4.5h-15a2.25 2.25 0 00-2.25 2.25m19.5 0v.243a2.25 2.25 0 01-1.07 1.916l-7.5 4.615a2.25 2.25 0 01-2.36 0L3.32 8.91a2.25 2.25 0 01-1.07-1.916V6.75" />
</symbol>
<symbol  id="icon-back-to-top"  fill="none" viewBox="0 0 24 24" stroke-width="1.5" stroke="currentColor" class="w-6 h-6">
  <path stroke-linecap="round" stroke-linejoin="round" d="M4.5 15.75l7.5-7.5 7.5 7.5" />
</symbol>
<symbol id="icon-close-menu" fill="none"  viewBox="0 0 24 24" stroke-width="1.5" stroke="currentColor">
   <path stroke-linecap="round" stroke-linejoin="round" d="M6 18L18 6M6 6l12 12" />
</symbol>
<symbol id="icon-open-menu" fill="none" viewBox="0 0 24 24" stroke-width="1.5" stroke="currentColor">
   <path  stroke-linecap="round" stroke-linejoin="round" d="M3.75 6.75h16.5M3.75 12h16.5m-16.5 5.25h16.5" />
</symbol>
</defs>
</svg>


